HIERARCHY
ROOT Hips
{
	OFFSET 54.566799 -9.298776 96.115196
	CHANNELS 6 Xposition Yposition Zposition Xrotation Yrotation Zrotation
	JOINT spine
	{
		OFFSET 0.000000 -0.467661 8.132492
		CHANNELS 3 Xrotation Yrotation Zrotation
		JOINT spine1
		{
			OFFSET 0.000000 -0.000002 10.349800
			CHANNELS 3 Xrotation Yrotation Zrotation
			JOINT spine2
			{
				OFFSET 0.000000 -0.000001 9.916992
				CHANNELS 3 Xrotation Yrotation Zrotation
				JOINT Neck
				{
					OFFSET 0.000000 -1.213904 25.460999
					CHANNELS 3 Xrotation Yrotation Zrotation
					JOINT Head
					{
						OFFSET 0.000000 -0.000001 7.692444
						CHANNELS 3 Xrotation Yrotation Zrotation
						End Site
						{
							OFFSET 0.000000 6.140627 18.619995
						}
					}
				}
				JOINT RightShoulder
				{
					OFFSET -4.175751 0.581443 10.709595
					CHANNELS 3 Xrotation Yrotation Zrotation
					JOINT RightArm
					{
						OFFSET 0.000000 -0.000003 14.046600
						CHANNELS 3 Xrotation Yrotation Zrotation
						JOINT RightArmRoll
						{
							OFFSET 0.000000 -0.000001 7.090988
							CHANNELS 3 Xrotation Yrotation Zrotation
							JOINT RightForeArm
							{
								OFFSET 0.000000 -0.000003 20.653503
								CHANNELS 3 Xrotation Yrotation Zrotation
								JOINT RightForeArmRoll
								{
									OFFSET 0.000000 -0.000002 7.957184
									CHANNELS 3 Xrotation Yrotation Zrotation
									JOINT RightHand
									{
										OFFSET 0.000000 -0.000002 15.968292
										CHANNELS 3 Xrotation Yrotation Zrotation
										End Site
										{
											OFFSET 0.000000 0.000000 0.100006
										}
									}
								}
							}
						}
					}
				}
				JOINT LeftShoulder
				{
					OFFSET 4.175751 0.581443 10.709595
					CHANNELS 3 Xrotation Yrotation Zrotation
					JOINT LeftArm
					{
						OFFSET 0.000000 -0.000003 14.046600
						CHANNELS 3 Xrotation Yrotation Zrotation
						JOINT LeftArmRoll
						{
							OFFSET 0.000000 -0.000001 7.090973
							CHANNELS 3 Xrotation Yrotation Zrotation
							JOINT LeftForeArm
							{
								OFFSET 0.000000 -0.000003 20.653503
								CHANNELS 3 Xrotation Yrotation Zrotation
								JOINT LeftForeArmRoll
								{
									OFFSET 0.000000 -0.000002 7.957184
									CHANNELS 3 Xrotation Yrotation Zrotation
									JOINT LeftHand
									{
										OFFSET 0.000000 -0.000002 15.968307
										CHANNELS 3 Xrotation Yrotation Zrotation
										End Site
										{
											OFFSET 0.000000 0.000000 0.100006
										}
									}
								}
							}
						}
					}
				}
			}
		}
	}
	JOINT RightUpLeg
	{
		OFFSET -7.208340 1.108840 -1.321823
		CHANNELS 3 Xrotation Yrotation Zrotation
		JOINT RightUpLegRoll
		{
			OFFSET 0.000000 -0.000003 18.723801
			CHANNELS 3 Xrotation Yrotation Zrotation
			JOINT RightLeg
			{
				OFFSET 0.000000 0.000004 -23.186600
				CHANNELS 3 Xrotation Yrotation Zrotation
				JOINT RightLegRoll
				{
					OFFSET 0.000000 -0.000004 23.262398
					CHANNELS 3 Xrotation Yrotation Zrotation
					JOINT RightFoot
					{
						OFFSET 0.000000 -0.000004 19.362106
						CHANNELS 3 Xrotation Yrotation Zrotation
						JOINT RightToeBase
						{
							OFFSET 0.000000 -0.000002 16.185699
							CHANNELS 3 Xrotation Yrotation Zrotation
							End Site
							{
								OFFSET 0.006859 0.903519 7.838623
							}
						}
					}
				}
			}
		}
	}
	JOINT LeftUpLeg
	{
		OFFSET 7.208340 1.108840 -1.321823
		CHANNELS 3 Xrotation Yrotation Zrotation
		JOINT LeftUpLegRoll
		{
			OFFSET 0.000000 -0.000003 18.723900
			CHANNELS 3 Xrotation Yrotation Zrotation
			JOINT LeftLeg
			{
				OFFSET 0.000000 -0.000004 23.186493
				CHANNELS 3 Xrotation Yrotation Zrotation
				JOINT LeftLegRoll
				{
					OFFSET 0.000000 -0.000004 23.477509
					CHANNELS 3 Xrotation Yrotation Zrotation
					JOINT LeftFoot
					{
						OFFSET 0.000000 -0.000004 19.147003
						CHANNELS 3 Xrotation Yrotation Zrotation
						JOINT LeftToeBase
						{
							OFFSET 0.000000 -0.000002 16.185699
							CHANNELS 3 Xrotation Yrotation Zrotation
							End Site
							{
								OFFSET -0.030746 0.903521 7.838623
							}
						}
					}
				}
			}
		}
	}
}
MOTION
Frames: 12
Frame Time: 0.041667
54.578300 -7.731936 96.136986 -3.854417 1.866880 0.930380 -1.313708 -0.202735 0.083896 1.393425 -0.410885 0.161281 3.038518 -0.408951 0.166207 5.631214 -1.618216 -9.998764 8.193558 -6.694793 -8.846808 -21.189610 -31.944972 -25.588701 -121.720801 -145.773954 -82.360484 -0.000001 0.000023 0.000002 63.656864 -0.096227 1.719872 -0.000004 0.000003 -3.010131 -5.000171 -7.999594 0.000076 -11.837964 63.682109 14.196054 -52.945724 111.242383 39.447836 -0.000001 0.000002 0.000016 0.067165 8.023948 1.142007 0.000001 -0.000014 3.036753 -5.000223 7.998853 -0.000146 0.881425 -173.912722 3.643906 -179.999991 0.000006 -1.088003 172.761084 -1.927531 -0.464782 0.000002 -0.000002 -0.046273 67.981706 6.390614 3.462710 25.456953 -7.355613 -0.000002 -0.789405 170.491890 -3.168783 -0.000020 -0.000003 -0.867458 -13.373936 1.014955 0.782577 0.000001 -0.000006 -0.142146 72.458362 -5.954881 -4.505267 25.459877 7.355616 -0.004449 
54.575203 -7.737296 96.137184 -3.840807 1.863727 0.935906 -1.315278 -0.202522 0.084702 1.388696 -0.410227 0.161743 3.033788 -0.408296 0.166666 5.650796 -1.587551 -9.997640 8.196931 -6.677054 -8.852173 -21.190899 -31.944347 -25.590562 -121.741592 -145.799253 -82.216237 0.000000 0.000022 0.000001 63.064414 -0.023370 1.686292 -0.000001 0.000001 -3.010129 -5.000170 -7.999593 0.000077 -11.850774 63.678004 14.210630 -52.927430 111.223559 39.423507 -0.000000 0.000002 0.000013 0.067161 8.023437 1.141479 -0.000002 -0.000015 3.036769 -5.000222 7.998853 -0.000147 0.867641 -173.909703 3.642010 -179.999991 0.000006 -1.087006 172.756767 -1.926510 -0.463803 0.000002 -0.000001 -0.046289 67.986084 6.389858 3.464409 25.456952 -7.355614 -0.000001 -0.797603 170.495906 -3.164844 -0.000021 -0.000003 -0.867381 -13.363536 1.016039 0.782254 0.000002 -0.000006 -0.141870 72.453643 -5.955017 -4.508441 25.459880 7.355616 -0.004450 
54.584904 -7.736289 96.137886 -3.826619 1.860764 0.941455 -1.316921 -0.202320 0.085489 1.383686 -0.409573 0.162129 3.028777 -0.407645 0.167047 5.671423 -1.557691 -9.996326 8.198539 -6.658534 -8.857460 -21.192223 -31.943839 -25.592466 -121.761700 -145.825905 -82.072434 -0.000001 0.000023 0.000003 62.470263 0.051661 1.652319 -0.000000 0.000002 -3.010130 -5.000171 -7.999587 0.000079 -11.864087 63.673250 14.225753 -52.910969 111.204058 39.401377 -0.000001 0.000001 0.000014 0.067155 8.022925 1.140910 0.000003 -0.000015 3.036791 -5.000222 7.998854 -0.000147 0.853288 -173.907668 3.639866 -179.999991 0.000005 -1.087006 172.752560 -1.925503 -0.463819 0.000002 -0.000002 -0.046303 67.990592 6.389151 3.466011 25.456948 -7.355613 -0.000002 -0.806313 170.497928 -3.160883 -0.000020 -0.000004 -0.867305 -13.352940 1.017115 0.781948 0.000002 -0.000005 -0.141598 72.448950 -5.955179 -4.511915 25.459880 7.355617 -0.004449 
54.591099 -7.722242 96.134682 -3.811994 1.857932 0.946970 -1.318607 -0.202128 0.086252 1.378465 -0.408920 0.162457 3.023556 -0.406997 0.167372 5.692984 -1.528506 -9.994742 8.198740 -6.639353 -8.862613 -21.193309 -31.943354 -25.594047 -121.781207 -145.853977 -81.928987 -0.000001 0.000024 0.000002 61.873980 0.128869 1.617904 -0.000003 0.000002 -3.010132 -5.000169 -7.999590 0.000079 -11.877824 63.667957 14.241351 -52.890031 111.185603 39.374384 -0.000001 0.000001 0.000015 0.067152 8.022397 1.140293 -0.000001 -0.000015 3.036810 -5.000224 7.998854 -0.000146 0.838511 -173.904649 3.637602 -179.999991 0.000004 -1.087006 172.748461 -1.923507 -0.463705 0.000002 -0.000002 -0.046318 67.995100 6.388479 3.467521 25.456950 -7.355614 -0.000002 -0.815448 170.500960 -3.156917 -0.000020 -0.000003 -0.867234 -13.342444 1.018170 0.781658 0.000002 -0.000006 -0.141330 72.444162 -5.955440 -4.515309 25.459880 7.355617 -0.004451 
54.586102 -7.726219 96.134491 -3.797064 1.855191 0.952399 -1.320358 -0.201942 0.086983 1.373085 -0.408268 0.162751 3.018176 -0.406348 0.167662 5.715336 -1.499860 -9.993007 8.197868 -6.619635 -8.867623 -21.194436 -31.943060 -25.595620 -121.800141 -145.883675 -81.785737 0.000002 0.000023 0.000003 61.275396 0.208279 1.583015 -0.000001 0.000002 -3.010120 -5.000170 -7.999591 0.000078 -11.892012 63.662308 14.257454 -52.870763 111.166397 39.349133 -0.000000 0.000002 0.000015 0.067148 8.021787 1.139643 -0.000001 -0.000015 3.036828 -5.000221 7.998853 -0.000146 0.823426 -173.902627 3.635249 -179.999991 0.000006 -1.087006 172.744459 -1.922500 -0.462716 0.000002 -0.000002 -0.046333 67.999519 6.387876 3.468944 25.456945 -7.355613 -0.000001 -0.824935 170.503966 -3.152905 -0.000020 -0.000004 -0.867171 -13.331945 1.019207 0.781385 0.000002 -0.000006 -0.141068 72.439470 -5.955665 -4.518896 25.459878 7.355617 -0.004450 
54.582600 -7.738348 96.129082 -3.781930 1.852479 0.957684 -1.322158 -0.201760 0.087674 1.367594 -0.407615 0.163031 3.012676 -0.405696 0.167938 5.738370 -1.471591 -9.991039 8.196262 -6.599523 -8.872443 -21.195547 -31.942671 -25.597145 -121.818309 -145.915203 -81.642269 -0.000001 0.000024 0.000001 60.674319 0.289903 1.547600 -0.000001 0.000002 -3.010122 -5.000172 -7.999584 0.000078 -11.906591 63.656523 14.274000 -52.849425 111.147784 39.321461 -0.000002 0.000002 0.000014 0.067143 8.021045 1.138987 0.000001 -0.000015 3.036850 -5.000225 7.998852 -0.000145 0.808175 -173.899594 3.632932 -179.999991 0.000005 -1.087006 172.740593 -1.921481 -0.462718 0.000002 -0.000002 -0.046346 68.003945 6.387268 3.470272 25.456948 -7.355613 -0.000001 -0.834693 170.506998 -3.148817 -0.000020 -0.000003 -0.867111 -13.321551 1.020206 0.781126 0.000002 -0.000006 -0.140814 72.434703 -5.955951 -4.522392 25.459882 7.355618 -0.004450 
54.589901 -7.734391 96.129875 -3.766726 1.849748 0.962774 -1.324009 -0.201581 0.088320 1.362043 -0.406958 0.163319 3.007136 -0.405038 0.168223 5.761956 -1.443582 -9.988751 8.194262 -6.579151 -8.877059 -21.196592 -31.942490 -25.598697 -121.835740 -145.948671 -81.498630 -0.000000 0.000026 0.000002 60.070626 0.373763 1.511638 -0.000003 0.000002 -3.010121 -5.000168 -7.999584 0.000079 -11.921516 63.650704 14.290944 -52.830099 111.128578 39.295639 -0.000002 0.000002 0.000013 0.067141 8.020127 1.138326 0.000001 -0.000015 3.036869 -5.000224 7.998854 -0.000146 0.792886 -173.897586 3.630684 -179.999991 0.000005 -1.085995 172.736850 -1.920476 -0.462717 0.000002 -0.000002 -0.046360 68.008173 6.386678 3.471812 25.456950 -7.355613 -0.000000 -0.844644 170.509020 -3.144605 -0.000020 -0.000004 -0.867060 -13.311351 1.021162 0.780886 0.000001 -0.000006 -0.140567 72.430133 -5.956205 -4.525675 25.459880 7.355618 -0.004451 
54.592201 -7.722836 96.138687 -3.751591 1.846946 0.967612 -1.325905 -0.201402 0.088912 1.356494 -0.406296 0.163638 3.001585 -0.404372 0.168537 5.785983 -1.415673 -9.986265 8.192221 -6.558631 -8.881431 -21.197647 -31.942401 -25.600183 -121.852556 -145.984311 -81.354725 0.000001 0.000023 0.000000 59.463839 0.459895 1.475070 -0.000003 0.000002 -3.010121 -5.000167 -7.999588 0.000076 -11.936811 63.645171 14.308320 -52.808676 111.109986 39.266983 -0.000002 0.000001 0.000014 0.067138 8.018987 1.137668 -0.000002 -0.000015 3.036881 -5.000222 7.998854 -0.000146 0.777699 -173.894540 3.628619 -179.999991 0.000005 -1.085995 172.733312 -1.919471 -0.461714 0.000002 -0.000002 -0.046373 68.012278 6.386076 3.473255 25.456947 -7.355613 -0.000001 -0.854698 170.512039 -3.140270 -0.000020 -0.000004 -0.867017 -13.301449 1.022071 0.780659 0.000001 -0.000006 -0.140329 72.425659 -5.956456 -4.528654 25.459880 7.355619 -0.004451 
54.588501 -7.726468 96.135185 -3.736624 1.844024 0.972145 -1.327835 -0.201219 0.089444 1.350994 -0.405627 0.164007 2.996085 -0.403696 0.168902 5.810310 -1.387746 -9.983499 8.190461 -6.538114 -8.885535 -21.198732 -31.942408 -25.601718 -121.868688 -146.022204 -81.210280 -0.000001 0.000022 -0.000001 58.853951 0.548316 1.437886 -0.000004 0.000003 -3.010118 -5.000169 -7.999587 0.000077 -11.952374 63.639905 14.326028 -52.789473 111.090855 39.240178 -0.000000 -0.000000 0.000014 0.067135 8.017566 1.137040 0.000000 -0.000015 3.036901 -5.000224 7.998853 -0.000146 0.762736 -173.891535 3.626798 -179.999991 0.000006 -1.085995 172.729897 -1.918467 -0.461701 0.000002 -0.000001 -0.046387 68.016178 6.385455 3.474809 25.456947 -7.355613 -0.000002 -0.864792 170.515072 -3.135772 -0.000020 -0.000003 -0.866983 -13.291854 1.022929 0.780450 0.000002 -0.000006 -0.140099 72.421397 -5.956675 -4.531313 25.459882 7.355619 -0.004450 
54.574406 -7.739545 96.133278 -3.721984 1.840911 0.976315 -1.329817 -0.201032 0.089908 1.345614 -0.404949 0.164450 2.990694 -0.403006 0.169340 5.834830 -1.359641 -9.980571 8.189331 -6.517729 -8.889356 -21.199956 -31.942490 -25.603458 -121.884152 -146.062516 -81.065152 -0.000000 0.000022 0.000000 58.240668 0.639077 1.400029 -0.000005 0.000002 -3.010120 -5.000171 -7.999589 0.000079 -11.968212 63.635226 14.344082 -52.772654 111.071280 39.215073 -0.000002 0.000003 0.000016 0.067131 8.015837 1.136435 -0.000000 -0.000015 3.036920 -5.000225 7.998852 -0.000147 0.748133 -173.888516 3.625303 -179.999991 0.000005 -1.085995 172.726687 -1.918454 -0.461809 0.000002 -0.000002 -0.046399 68.019750 6.384797 3.476575 25.456947 -7.355613 -0.000002 -0.874836 170.519074 -3.131088 -0.000020 -0.000003 -0.866958 -13.282658 1.023717 0.780256 0.000002 -0.000005 -0.139883 72.417347 -5.956892 -4.533464 25.459878 7.355615 -0.004449 
54.585003 -7.735018 96.134781 -3.707767 1.837578 0.980073 -1.331828 -0.200836 0.090298 1.340384 -0.404261 0.164987 2.985474 -0.402301 0.169871 5.859408 -1.331230 -9.977295 8.189171 -6.497593 -8.892853 -21.201203 -31.942660 -25.605140 -121.898960 -146.105437 -80.919205 -0.000002 0.000023 0.000001 57.623683 0.732213 1.361496 -0.000003 0.000001 -3.010121 -5.000169 -7.999591 0.000078 -11.984352 63.631326 14.362506 -52.756142 111.051868 39.189450 -0.000000 0.000002 0.000014 0.067124 8.013727 1.135887 -0.000001 -0.000015 3.036940 -5.000224 7.998854 -0.000145 0.734022 -173.885510 3.624208 -179.999991 0.000007 -1.084998 172.723682 -1.918440 -0.461909 0.000002 -0.000003 -0.046412 68.023118 6.384117 3.478347 25.456948 -7.355614 -0.000002 -0.884753 170.523104 -3.126175 -0.000020 -0.000004 -0.866947 -13.273957 1.024426 0.780075 0.000001 -0.000006 -0.139679 72.413474 -5.957045 -4.535095 25.459882 7.355617 -0.004449 
54.578903 -7.738776 96.138893 -3.694115 1.833963 0.983360 -1.333867 -0.200632 0.090606 1.335363 -0.403561 0.165641 2.980453 -0.401578 0.170517 5.883926 -1.302364 -9.973795 8.190328 -6.477852 -8.896000 -21.202468 -31.942927 -25.606968 -121.913016 -146.151158 -80.772226 -0.000002 0.000021 0.000001 57.002918 0.827760 1.322234 -0.000004 0.000003 -3.010117 -5.000168 -7.999590 0.000080 -12.000689 63.628328 14.381219 -52.742051 111.031999 39.165370 -0.000002 0.000001 0.000015 0.067123 8.011207 1.135387 -0.000001 -0.000015 3.036951 -5.000224 7.998854 -0.000146 0.720539 -173.881481 3.623613 -179.999991 0.000005 -1.084998 172.720840 -1.918429 -0.462004 0.000002 -0.000002 -0.046424 68.026055 6.383394 3.480337 25.456952 -7.355613 -0.000002 -0.894461 170.527134 -3.120998 -0.000020 -0.000003 -0.866946 -13.265758 1.025063 0.779912 0.000003 -0.000006 -0.139487 72.409909 -5.957139 -4.535999 25.459880 7.355616 -0.004449 
